<svg width="479" height="116" viewBox="0 0 479 116" fill="none" xmlns="http://www.w3.org/2000/svg">
<g clip-path="url(#clip0_1_2)">
<g filter="url(#filter0_d_1_2)">
<path d="M230.101 62.6664C230.101 51.3403 224.902 41.8994 208.763 41.8994C199.963 41.8994 193.332 44.2672 189.972 46.1373L194.779 54.7034C197.913 53.2406 202.103 52.1547 206.096 52.1547C213.51 52.1547 214.896 55.7893 214.896 58.3531V61.2789C199.239 61.2789 186.506 64.9436 186.506 77.446C186.506 85.1224 192.338 92.2106 202.148 92.2106C207.889 92.2106 212.832 90.1445 215.996 86.3138H216.298L217.187 91.1399H230.101V62.6814V62.6664ZM215.409 70.1165V73.6003C215.409 74.4901 215.303 75.3648 215.107 76.149C214.128 79.1955 211.054 81.6688 207.286 81.6688C203.926 81.6688 200.385 80.6131 200.355 76.7674C200.4 70.6595 207.075 70.1014 215.394 70.1014L215.409 70.1165Z" fill="black"/>
<path d="M366.073 66.1809C366.179 51.4314 357.815 41.8849 346.423 41.8849C339.807 41.8849 334.85 44.5392 332.017 48.6715H331.821V22.9277H317.053V91.0651H329.199L329.786 84.369H329.982C333.388 90.0697 338.737 92.1358 344.283 92.1358C355.178 92.1358 366.073 83.4792 366.073 66.1658V66.1809ZM340.787 80.3272C336.507 80.3272 333.102 77.2807 332.122 73.254C331.926 72.4698 331.836 71.58 331.836 70.5997V63.5266C331.836 62.5463 331.926 61.6565 332.122 60.7667C333.102 56.4384 336.794 53.392 340.787 53.392C347.689 53.392 351.004 59.2887 351.004 66.7691C351.004 75.4257 347.116 80.3423 340.787 80.3423V80.3272Z" fill="black"/>
<path d="M471 62.6664C471 51.3403 465.786 41.8994 449.662 41.8994C440.861 41.8994 434.231 44.2672 430.87 46.1373L435.677 54.7034C438.812 53.2406 443.001 52.1547 446.994 52.1547C454.409 52.1547 455.795 55.7893 455.795 58.3531V61.2789C440.138 61.2789 427.404 64.9436 427.404 77.446C427.404 85.1224 433.251 92.2106 443.046 92.2106C448.788 92.2106 453.73 90.1445 456.895 86.3138H457.196L458.085 91.1399H471V62.6814V62.6664ZM456.322 73.6003C456.322 74.4901 456.217 75.3648 456.021 76.149C455.026 79.1955 451.967 81.6688 448.2 81.6688C444.839 81.6688 441.298 80.6131 441.283 76.7674C441.313 70.6595 448.004 70.1014 456.307 70.1014V73.6003H456.322Z" fill="black"/>
<path d="M406.367 22.9131V47.2996H406.171C404.001 43.9515 399.36 41.8854 393.452 41.8854C381.924 41.8854 371.768 51.2509 371.858 67.4934C371.858 82.4541 381.02 92.1966 392.458 92.1966C398.666 92.1966 404.483 89.4367 407.542 84.0225H407.738L408.431 91.1107H421.331V22.9131H406.367ZM406.352 69.6651C406.352 70.947 406.246 72.0329 405.96 73.1187C405.071 77.3566 401.62 80.2974 397.28 80.2974C391.071 80.2974 387.033 75.1849 387.033 67.0108C387.033 59.4249 390.589 53.3321 397.385 53.3321C402.012 53.3321 405.267 56.6801 406.156 60.7219C406.261 61.5061 406.352 62.592 406.352 63.3762V69.6802V69.6651Z" fill="black"/>
<path d="M293.211 41.8994C289.654 41.8994 286.701 42.6836 284.049 44.2672C281.773 45.6547 279.618 47.6152 277.84 50.0735H277.644C275.58 45.0514 270.652 41.8994 264.443 41.8994C256.155 41.8994 251.921 46.4238 249.856 49.4853H249.555L248.862 42.9853H236.641V91.1248H251.228V63.0736C251.228 61.8972 251.333 60.5248 251.815 59.3334C252.705 56.8751 254.965 53.9192 258.808 53.9192C263.539 53.9192 265.709 58.0515 265.709 64.1594V91.1399H280.296V62.9831C280.296 61.8067 280.492 60.2232 280.884 59.1524C281.864 56.3021 284.335 53.9343 287.786 53.9343C292.608 53.9343 294.883 57.9761 294.883 64.9587V91.1399H309.471V62.787C309.471 48.4145 302.478 41.9145 293.211 41.9145V41.8994Z" fill="black"/>
<path d="M154.664 78.5017H181.081V91.1097H139.58V24.752H154.664V78.5017Z" fill="black"/>
<path d="M33.96 25.4202L51.36 55.9102L32 91.2202L44.46 91.2102L57.36 67.1202L71.1 91.2202H83.8L46.66 25.4102L33.96 25.4202Z" fill="black"/>
<path d="M8 8V108H108V8H8ZM99.17 99.1964H16.83V16.8036H99.17V99.1964Z" fill="black"/>
</g>
</g>
<defs>
<filter id="filter0_d_1_2" x="0" y="0" width="479" height="116" filterUnits="userSpaceOnUse" color-interpolation-filters="sRGB">
<feFlood flood-opacity="0" result="BackgroundImageFix"/>
<feColorMatrix in="SourceAlpha" type="matrix" values="0 0 0 0 0 0 0 0 0 0 0 0 0 0 0 0 0 0 127 0" result="hardAlpha"/>
<feOffset/>
<feGaussianBlur stdDeviation="4"/>
<feComposite in2="hardAlpha" operator="out"/>
<feColorMatrix type="matrix" values="0 0 0 0 1 0 0 0 0 1 0 0 0 0 1 0 0 0 0.5 0"/>
<feBlend mode="normal" in2="BackgroundImageFix" result="effect1_dropShadow_1_2"/>
<feBlend mode="normal" in="SourceGraphic" in2="effect1_dropShadow_1_2" result="shape"/>
</filter>
<clipPath id="clip0_1_2">
<rect width="479" height="116" fill="white"/>
</clipPath>
</defs>
</svg>
